<?xml version="1.0" encoding="utf-8"?>
<!-- Generator: Adobe Illustrator 26.0.3, SVG Export Plug-In . SVG Version: 6.00 Build 0)  -->
<svg version="1.1" id="Слой_1" xmlns="http://www.w3.org/2000/svg" xmlns:xlink="http://www.w3.org/1999/xlink" x="0px" y="0px"
	 viewBox="0 0 1920 1080" style="enable-background:new 0 0 1920 1080;" xml:space="preserve">
<style type="text/css">
	.st0{fill:#08A600;}
	.st1{fill:#0249A3;}
	.st2{opacity:0.32;}
	.st3{fill:none;}
</style>
<g>
	<g>
		<polygon class="st0" points="1406.6,662.4 1500,530.1 1455.6,466.2 1361.7,597 		"/>
		<polygon class="st0" points="1268.1,858.5 1289.3,828.4 1244.1,761 1174.1,858.5 		"/>
	</g>
	<polygon class="st0" points="1728.1,858.5 1635.2,858.5 1454.6,594.3 1410.2,529.4 1410.2,529.4 1455.5,466.2 1499.9,530.1 	"/>
	<path class="st1" d="M1034.4,177.5c-0.1,0.2-0.2,0.3-0.3,0.5c-0.1,0.1-0.2,0.2-0.2,0.3c-0.1,0.3-0.4,0.6-0.6,0.9v215.3l317.8,463.9
		l157.1-0.2L1034.4,177.5z"/>
	<g class="st2">
		<polygon class="st0" points="659,666.1 565.5,533.8 610,469.9 703.9,600.8 		"/>
		<polygon class="st0" points="795.9,858.5 888.7,858.5 821.5,764.8 776.7,831.6 776.3,832.2 794.8,858.5 		"/>
	</g>
	<path class="st0" d="M655.5,533.1l-0.1,0.1L611,598.2l-0.2,0.3l-177.9,260h-92.8c0.1-0.1,0.2-0.2,0.2-0.3l224.9-323.7l0.4-0.6
		L610,470l10.9,15.1L655.5,533.1z"/>
	<path class="st1" d="M1035.1,178.3c-0.1-0.1-0.2-0.3-0.2-0.4c0-0.1-0.1-0.1-0.1-0.2c-0.1-0.1-0.1-0.2-0.2-0.3L559.9,858.3
		l157.3,0.2l318.2-463.9V179C1035.3,178.8,1035.2,178.5,1035.1,178.3z"/>
	<polygon class="st0" points="890.1,858.5 888.8,858.7 888.7,858.5 795.9,858.5 776.7,831.6 755.8,802.3 676.6,690.9 610.8,598.5 
		565.2,534.5 565.1,534.4 565.5,533.8 569.1,528.6 609.9,469.3 722.3,625.4 801.6,735.5 	"/>
	<line class="st3" x1="1035.9" y1="396.3" x2="962.5" y2="282.8"/>
	<polygon class="st1" points="956.7,289 1034.1,177.4 1196.4,410.6 1093.3,482.3 	"/>
	<polyline class="st3" points="329.5,858.5 340.1,858.5 432.9,858.5 717.3,858.5 794.8,858.5 795.9,858.5 888.7,858.5 890.1,858.5 
		1174.1,858.5 1268.1,858.5 1635.2,858.5 1728.1,858.5 1747.9,858.5 	"/>
</g>
</svg>
