<?xml version="1.0" encoding="utf-8"?>
<!-- Generator: Adobe Illustrator 26.0.3, SVG Export Plug-In . SVG Version: 6.00 Build 0)  -->
<svg version="1.1" id="Слой_1" xmlns="http://www.w3.org/2000/svg" xmlns:xlink="http://www.w3.org/1999/xlink" x="0px" y="0px"
	 viewBox="0 0 1920 1080" style="enable-background:new 0 0 1920 1080;" xml:space="preserve">
<style type="text/css">
	.st0{fill:#08A600;}
	.st1{fill:#0249A3;}
	.st2{opacity:0.32;}
	.st3{fill:#FFFFFF;}
	.st4{fill:#1D3D91;}
</style>
<g>
	<polygon class="st0" points="1410.7,662.8 1504.3,530.2 1459.8,466.2 1365.7,597.3 	"/>
	<polygon class="st0" points="1247.8,761.7 1172.8,866.2 1265.9,867.9 1293.1,829.3 	"/>
</g>
<polygon class="st0" points="1414.3,529.5 1459.8,466.2 1741,871 1647.9,871.1 "/>
<path class="st1" d="M1037.6,176.8c-0.1,0.2-0.2,0.3-0.3,0.5c-0.1,0.1-0.2,0.2-0.2,0.3c-0.1,0.3-0.4,0.6-0.6,0.9v215.8l318.6,465
	l157.5-0.2L1037.6,176.8z"/>
<g class="st2">
	<polygon class="st0" points="661.3,666.6 567.6,533.9 612.2,469.9 706.3,601.1 	"/>
	<polygon class="st0" points="824.2,765.5 899.1,869.9 806.1,871.6 778.9,833.1 	"/>
</g>
<path class="st0" d="M612.2,470L341.8,859.1c0,0.1-0.1,0.2-0.2,0.3l-10.6,15.3l93.1,0.1l233.7-341.6L612.2,470z"/>
<path class="st1" d="M1038.3,177.6c-0.1-0.1-0.2-0.3-0.2-0.4c0-0.1-0.1-0.1-0.1-0.2c-0.1-0.1-0.1-0.2-0.2-0.3L562,859.2l157.7,0.2
	l319-465V178.3C1038.5,178.1,1038.4,177.8,1038.3,177.6z"/>
<polygon class="st0" points="567.2,534.5 612.1,469.3 902.2,872.2 807.8,872.5 "/>
<g>
	<path class="st3" d="M341.3,859.1c0,0.1-0.1,0.2-0.2,0.3l-10.4,15.4v0.2h706.7v-15.9L341.3,859.1L341.3,859.1z"/>
	<polygon class="st3" points="1036.8,859.1 1732.8,859.1 1743.5,874.8 1743.5,875 1036.8,875 	"/>
</g>
<line class="st4" x1="1039.1" y1="396.1" x2="965.5" y2="282.3"/>
<polygon class="st1" points="959.7,288.5 1037.3,176.7 1200,410.4 1096.7,482.3 "/>
</svg>
